<mxfile host="65bd71144e">
    <diagram id="XNzBwbrHRo8lmx-aHQVV" name="Page-1">
        <mxGraphModel dx="1636" dy="1000" grid="1" gridSize="10" guides="1" tooltips="1" connect="1" arrows="1" fold="1" page="1" pageScale="1" pageWidth="850" pageHeight="1100" math="0" shadow="0">
            <root>
                <mxCell id="0"/>
                <mxCell id="1" parent="0"/>
                <mxCell id="15" value="" style="edgeStyle=none;shape=flexArrow;html=1;startArrow=block;" edge="1" parent="1" source="2" target="14">
                    <mxGeometry relative="1" as="geometry"/>
                </mxCell>
                <mxCell id="2" value="Client" style="text;html=1;align=center;verticalAlign=middle;resizable=0;points=[];autosize=1;strokeColor=none;fillColor=none;" vertex="1" parent="1">
                    <mxGeometry x="60" y="165" width="50" height="30" as="geometry"/>
                </mxCell>
                <mxCell id="17" value="" style="edgeStyle=none;shape=flexArrow;html=1;startArrow=block;" edge="1" parent="1" source="14" target="16">
                    <mxGeometry relative="1" as="geometry"/>
                </mxCell>
                <mxCell id="14" value="Server" style="text;html=1;align=center;verticalAlign=middle;resizable=0;points=[];autosize=1;strokeColor=none;fillColor=none;" vertex="1" parent="1">
                    <mxGeometry x="360" y="20" width="60" height="30" as="geometry"/>
                </mxCell>
                <mxCell id="16" value="Database" style="text;html=1;align=center;verticalAlign=middle;resizable=0;points=[];autosize=1;strokeColor=none;fillColor=none;" vertex="1" parent="1">
                    <mxGeometry x="700" y="135" width="70" height="30" as="geometry"/>
                </mxCell>
                <mxCell id="18" value="" style="shape=image;verticalLabelPosition=bottom;verticalAlign=top;imageAspect=0;image=https://upload.wikimedia.org/wikipedia/commons/thumb/4/49/Applications-database.svg/1024px-Applications-database.svg.png" vertex="1" parent="1">
                    <mxGeometry x="680" y="170" width="110" height="128.5" as="geometry"/>
                </mxCell>
                <mxCell id="19" value="" style="shape=image;verticalLabelPosition=bottom;verticalAlign=top;imageAspect=0;image=https://cdn2.iconfinder.com/data/icons/whcompare-isometric-web-hosting-servers/50/value-server-512.png" vertex="1" parent="1">
                    <mxGeometry x="324" y="80" width="132" height="122" as="geometry"/>
                </mxCell>
                <mxCell id="24" value="" style="edgeStyle=none;shape=flexArrow;html=1;startArrow=block;" edge="1" parent="1" source="20" target="23">
                    <mxGeometry relative="1" as="geometry"/>
                </mxCell>
                <mxCell id="20" value="&lt;b&gt;Canvas API&lt;/b&gt;: GET (G)&amp;nbsp;&lt;br&gt;(1) (G) /api/v1/courses (Query - enroll_type: TA/teacher,&lt;br&gt;enroll_state: &quot;active&quot;, state: [&quot;available&quot;]): id (refer as &lt;br&gt;course_id here)&lt;br&gt;(2) (G) /api/v1/{course_id}/quizzes: id (refer as quiz_id &lt;br&gt;here)&lt;br&gt;(3) (G) /api/v1/courses/{course_id}/quizzes/{quiz_id}/questions:&lt;br&gt;Entire object (each canvas quiz question)&amp;nbsp;&amp;nbsp;" style="text;html=1;align=center;verticalAlign=middle;resizable=0;points=[];autosize=1;strokeColor=none;fillColor=none;" vertex="1" parent="1">
                    <mxGeometry x="210" y="200" width="360" height="130" as="geometry"/>
                </mxCell>
                <mxCell id="23" value="canvas.api.ts (Canvas API Parser)" style="text;html=1;align=center;verticalAlign=middle;resizable=0;points=[];autosize=1;strokeColor=none;fillColor=none;" vertex="1" parent="1">
                    <mxGeometry x="285" y="380" width="210" height="30" as="geometry"/>
                </mxCell>
                <mxCell id="26" value="" style="shape=image;verticalLabelPosition=bottom;verticalAlign=top;imageAspect=0;image=https://previews.123rf.com/images/faysalfarhan/faysalfarhan1711/faysalfarhan171147553/90450638-client-member-icon-isolated-on-yellow-round-button-abstract-illustration.jpg" vertex="1" parent="1">
                    <mxGeometry x="10" y="202" width="150" height="140" as="geometry"/>
                </mxCell>
            </root>
        </mxGraphModel>
    </diagram>
</mxfile>